<?xml version="1.0" encoding="UTF-8"?><svg id="Ebene_2" xmlns="http://www.w3.org/2000/svg" viewBox="0 0 231.47 83.62"><defs><style>.cls-1{fill:#131e30;}.cls-2{fill:#836ae4;}.cls-3{fill:#1f2836;}.cls-4{fill:none;}</style></defs><g id="Ebene_1-2"><g><rect class="cls-4" width="231.47" height="83.62"/><g><g><path class="cls-2" d="m22.46,45.97c-3.7,3.72-7.41,7.48-11.11,11.2-.02-11.32-.03-22.92-.03-34.24,0-.35.12-.81.36-1.04,3.49-3.49,7.02-6.96,10.65-10.54.03.5.07.9.07,1.31,0,10.44,0,20.88,0,31.32,0,.59.04,1.42.06,2"/><path class="cls-2" d="m22.09,61.73c2.55-2.56,5.09-5.12,7.63-7.68,6.02,5.97,12.04,11.95,18.07,17.92-.07.11-.15.22-.22.33-4.82,0-9.64,0-14.46-.02-.34,0-.77-.19-1.01-.44-3.35-3.36-6.68-6.74-10.01-10.11"/><path class="cls-3" d="m22.46,45.89c3.14-3.14,6.27-6.29,9.44-9.41.38-.38.96-.77,1.45-.78,4.73-.06,9.47-.03,14.58-.03-6.22,6.28-12.22,12.33-18.22,18.37-2.55,2.56-5.09,5.12-7.63,7.68-3.27,3.23-6.54,6.45-9.79,9.7-.26.26-.79.88-.95.82v-15.2c3.7-3.71,7.41-7.43,11.11-11.15"/></g><g><path class="cls-1" d="m70.25,72.62c-.31-.61-.59-1.59-.82-2.96-2.27,2.37-5.05,3.55-8.33,3.55s-5.79-.91-7.8-2.73c-2.01-1.82-3.02-4.07-3.02-6.75,0-3.38,1.26-5.98,3.77-7.79,2.51-1.81,6.11-2.71,10.78-2.71h4.37v-2.08c0-1.64-.46-2.96-1.38-3.95-.92-.99-2.32-1.48-4.2-1.48-1.62,0-2.95.41-3.99,1.22-1.04.81-1.55,1.84-1.55,3.09h-7.13c0-1.74.58-3.37,1.73-4.88,1.15-1.51,2.72-2.7,4.71-3.56,1.99-.86,4.2-1.29,6.65-1.29,3.71,0,6.68.93,8.89,2.8,2.21,1.87,3.34,4.49,3.4,7.88v14.32c0,2.86.4,5.13,1.2,6.83v.5h-7.28Zm-7.83-5.13c1.41,0,2.73-.34,3.98-1.03,1.24-.68,2.17-1.6,2.8-2.76v-5.98h-3.84c-2.64,0-4.62.46-5.96,1.38-1.33.92-2,2.22-2,3.9,0,1.37.46,2.46,1.36,3.27.91.81,2.13,1.22,3.65,1.22Z"/><path class="cls-1" d="m100.4,47.39c-.94-.16-1.91-.23-2.9-.23-3.27,0-5.47,1.25-6.6,3.75v21.71h-7.13v-31.74h6.81l.18,3.55c1.72-2.76,4.11-4.14,7.16-4.14,1.02,0,1.86.14,2.52.41l-.03,6.69Z"/><path class="cls-1" d="m121.53,47.39c-.94-.16-1.91-.23-2.9-.23-3.27,0-5.47,1.25-6.6,3.75v21.71h-7.13v-31.74h6.81l.18,3.55c1.72-2.76,4.11-4.14,7.16-4.14,1.02,0,1.86.14,2.52.41l-.03,6.69Z"/><path class="cls-1" d="m126.04,32.64c0-1.09.35-2,1.04-2.73.69-.72,1.69-1.08,2.98-1.08s2.29.36,2.99,1.08c.7.72,1.06,1.63,1.06,2.73s-.35,1.97-1.06,2.68-1.7,1.07-2.99,1.07-2.28-.36-2.98-1.07-1.04-1.61-1.04-2.68Zm7.57,39.99h-7.13v-31.74h7.13v31.74Z"/><path class="cls-1" d="m155.35,73.21c-4.52,0-8.18-1.42-10.99-4.27s-4.21-6.63-4.21-11.37v-.88c0-3.17.61-6,1.83-8.49,1.22-2.49,2.94-4.43,5.15-5.82,2.21-1.39,4.67-2.08,7.39-2.08,4.32,0,7.66,1.38,10.02,4.14,2.36,2.76,3.54,6.66,3.54,11.71v2.88h-20.74c.21,2.62,1.09,4.69,2.63,6.22,1.54,1.53,3.47,2.29,5.79,2.29,3.27,0,5.93-1.32,7.98-3.96l3.84,3.67c-1.27,1.9-2.97,3.37-5.09,4.42s-4.5,1.57-7.14,1.57Zm-.85-27.2c-1.96,0-3.54.69-4.74,2.05-1.2,1.37-1.97,3.28-2.3,5.72h13.58v-.53c-.16-2.39-.79-4.19-1.91-5.41-1.11-1.22-2.66-1.83-4.63-1.83Z"/><path class="cls-1" d="m190.23,47.39c-.94-.16-1.91-.23-2.9-.23-3.27,0-5.47,1.25-6.6,3.75v21.71h-7.13v-31.74h6.81l.18,3.55c1.72-2.76,4.11-4.14,7.16-4.14,1.02,0,1.86.14,2.52.41l-.03,6.69Z"/><path class="cls-1" d="m213.7,72.62c-.31-.61-.59-1.59-.82-2.96-2.27,2.37-5.05,3.55-8.33,3.55s-5.79-.91-7.8-2.73c-2.01-1.82-3.02-4.07-3.02-6.75,0-3.38,1.26-5.98,3.77-7.79,2.51-1.81,6.11-2.71,10.78-2.71h4.37v-2.08c0-1.64-.46-2.96-1.38-3.95-.92-.99-2.32-1.48-4.2-1.48-1.62,0-2.95.41-3.99,1.22-1.04.81-1.55,1.84-1.55,3.09h-7.13c0-1.74.58-3.37,1.73-4.88,1.15-1.51,2.72-2.7,4.71-3.56,1.99-.86,4.2-1.29,6.65-1.29,3.71,0,6.68.93,8.89,2.8,2.21,1.87,3.34,4.49,3.4,7.88v14.32c0,2.86.4,5.13,1.2,6.83v.5h-7.28Zm-7.83-5.13c1.41,0,2.73-.34,3.98-1.03,1.24-.68,2.17-1.6,2.8-2.76v-5.98h-3.84c-2.64,0-4.62.46-5.96,1.38-1.33.92-2,2.22-2,3.9,0,1.37.46,2.46,1.36,3.27.91.81,2.13,1.22,3.65,1.22Z"/></g></g></g></g></svg>